                <svg width="290" height="40" viewBox="0 0 290 40" fill="none" xmlns="http://www.w3.org/2000/svg">
                    <path d="M9.184 32.664H19.936V39H0.976V5.304H9.184V32.664ZM27.019 25.56C27.019 22.808 27.531 20.392 28.555 18.312C29.611 16.232 31.035 14.632 32.827 13.512C34.619 12.392 36.619 11.832 38.827 11.832C40.715 11.832 42.363 12.216 43.771 12.984C45.211 13.752 46.315 14.76 47.083 16.008V12.216H55.291V39H47.083V35.208C46.283 36.456 45.163 37.464 43.723 38.232C42.315 39 40.667 39.384 38.779 39.384C36.603 39.384 34.619 38.824 32.827 37.704C31.035 36.552 29.611 34.936 28.555 32.856C27.531 30.744 27.019 28.312 27.019 25.56ZM47.083 25.608C47.083 23.56 46.507 21.944 45.355 20.76C44.235 19.576 42.859 18.984 41.227 18.984C39.595 18.984 38.203 19.576 37.051 20.76C35.931 21.912 35.371 23.512 35.371 25.56C35.371 27.608 35.931 29.24 37.051 30.456C38.203 31.64 39.595 32.232 41.227 32.232C42.859 32.232 44.235 31.64 45.355 30.456C46.507 29.272 47.083 27.656 47.083 25.608ZM74.2371 16.008C75.0051 14.76 76.1091 13.752 77.5491 12.984C78.9891 12.216 80.6371 11.832 82.4931 11.832C84.7011 11.832 86.7011 12.392 88.4931 13.512C90.2851 14.632 91.6931 16.232 92.7171 18.312C93.7731 20.392 94.3011 22.808 94.3011 25.56C94.3011 28.312 93.7731 30.744 92.7171 32.856C91.6931 34.936 90.2851 36.552 88.4931 37.704C86.7011 38.824 84.7011 39.384 82.4931 39.384C80.6051 39.384 78.9571 39.016 77.5491 38.28C76.1411 37.512 75.0371 36.504 74.2371 35.256V39H66.0291V3.48H74.2371V16.008ZM85.9491 25.56C85.9491 23.512 85.3731 21.912 84.2211 20.76C83.1011 19.576 81.7091 18.984 80.0451 18.984C78.4131 18.984 77.0211 19.576 75.8691 20.76C74.7491 21.944 74.1891 23.56 74.1891 25.608C74.1891 27.656 74.7491 29.272 75.8691 30.456C77.0211 31.64 78.4131 32.232 80.0451 32.232C81.6771 32.232 83.0691 31.64 84.2211 30.456C85.3731 29.24 85.9491 27.608 85.9491 25.56Z" fill="black"/>
                    <path d="M118.335 32.04V39H114.159C111.183 39 108.863 38.28 107.199 36.84C105.535 35.368 104.703 32.984 104.703 29.688V19.032H101.439V12.216H104.703V5.688H112.911V12.216H118.287V19.032H112.911V29.784C112.911 30.584 113.103 31.16 113.487 31.512C113.871 31.864 114.511 32.04 115.407 32.04H118.335ZM139.899 39.384C137.275 39.384 134.907 38.824 132.795 37.704C130.715 36.584 129.067 34.984 127.851 32.904C126.667 30.824 126.075 28.392 126.075 25.608C126.075 22.856 126.683 20.44 127.899 18.36C129.115 16.248 130.779 14.632 132.891 13.512C135.003 12.392 137.371 11.832 139.995 11.832C142.619 11.832 144.987 12.392 147.099 13.512C149.211 14.632 150.875 16.248 152.091 18.36C153.307 20.44 153.915 22.856 153.915 25.608C153.915 28.36 153.291 30.792 152.043 32.904C150.827 34.984 149.147 36.584 147.003 37.704C144.891 38.824 142.523 39.384 139.899 39.384ZM139.899 32.28C141.467 32.28 142.795 31.704 143.883 30.552C145.003 29.4 145.563 27.752 145.563 25.608C145.563 23.464 145.019 21.816 143.931 20.664C142.875 19.512 141.563 18.936 139.995 18.936C138.395 18.936 137.067 19.512 136.011 20.664C134.955 21.784 134.427 23.432 134.427 25.608C134.427 27.752 134.939 29.4 135.963 30.552C137.019 31.704 138.331 32.28 139.899 32.28ZM171.278 16.68C172.238 15.208 173.438 14.056 174.878 13.224C176.318 12.36 177.918 11.928 179.678 11.928V20.616H177.422C175.374 20.616 173.838 21.064 172.814 21.96C171.79 22.824 171.278 24.36 171.278 26.568V39H163.07V12.216H171.278V16.68ZM192.529 9.432C191.089 9.432 189.905 9.016 188.977 8.184C188.081 7.32 187.633 6.264 187.633 5.016C187.633 3.736 188.081 2.68 188.977 1.848C189.905 0.983997 191.089 0.551997 192.529 0.551997C193.937 0.551997 195.089 0.983997 195.985 1.848C196.913 2.68 197.377 3.736 197.377 5.016C197.377 6.264 196.913 7.32 195.985 8.184C195.089 9.016 193.937 9.432 192.529 9.432ZM196.609 12.216V39H188.401V12.216H196.609ZM233.805 12.216V39H225.597V35.352C224.765 36.536 223.629 37.496 222.189 38.232C220.781 38.936 219.213 39.288 217.485 39.288C215.437 39.288 213.629 38.84 212.061 37.944C210.493 37.016 209.277 35.688 208.413 33.96C207.549 32.232 207.117 30.2 207.117 27.864V12.216H215.277V26.76C215.277 28.552 215.741 29.944 216.669 30.936C217.597 31.928 218.845 32.424 220.413 32.424C222.013 32.424 223.277 31.928 224.205 30.936C225.133 29.944 225.597 28.552 225.597 26.76V12.216H233.805ZM278.677 11.928C282.005 11.928 284.645 12.936 286.597 14.952C288.581 16.968 289.573 19.768 289.573 23.352V39H281.413V24.456C281.413 22.728 280.949 21.4 280.021 20.472C279.125 19.512 277.877 19.032 276.277 19.032C274.677 19.032 273.413 19.512 272.485 20.472C271.589 21.4 271.141 22.728 271.141 24.456V39H262.981V24.456C262.981 22.728 262.517 21.4 261.589 20.472C260.693 19.512 259.445 19.032 257.845 19.032C256.245 19.032 254.981 19.512 254.053 20.472C253.157 21.4 252.709 22.728 252.709 24.456V39H244.501V12.216H252.709V15.576C253.541 14.456 254.629 13.576 255.973 12.936C257.317 12.264 258.837 11.928 260.533 11.928C262.549 11.928 264.341 12.36 265.909 13.224C267.509 14.088 268.757 15.32 269.653 16.92C270.581 15.448 271.845 14.248 273.445 13.32C275.045 12.392 276.789 11.928 278.677 11.928Z" fill="#6BB36B"/>
                    </svg>